<?xml version="1.0" standalone="no"?>
<!DOCTYPE svg PUBLIC "-//W3C//DTD SVG 20010904//EN"
 "http://www.w3.org/TR/2001/REC-SVG-20010904/DTD/svg10.dtd">
<svg version="1.0" xmlns="http://www.w3.org/2000/svg"
 width="70.000000pt" height="40.000000pt" viewBox="0 0 1280.000000 972.000000"
 preserveAspectRatio="xMidYMid meet">
<metadata>
Created by potrace 1.15, written by Peter Selinger 2001-2017
</metadata>
<g transform="translate(0.000000,972.000000) scale(0.100000,-0.100000)"
fill="#000000" stroke="none">
<path d="M7925 9709 c-66 -15 -123 -38 -268 -110 -252 -125 -342 -198 -480
-390 l-68 -94 5 -70 c5 -82 123 -505 158 -568 23 -42 33 -47 115 -67 141 -35
93 -110 -107 -165 -158 -45 -270 -81 -385 -126 l-110 -42 -185 -6 c-204 -7
-194 -4 -285 -81 -65 -54 -274 -156 -545 -265 -118 -48 -296 -126 -395 -175
-263 -130 -316 -183 -346 -355 -16 -94 -5 -228 25 -316 55 -159 226 -404 360
-516 38 -32 38 -33 34 -92 -6 -86 -67 -203 -242 -465 -167 -250 -253 -414
-359 -681 -204 -515 -237 -651 -237 -968 0 -210 10 -343 37 -469 8 -42 13 -87
10 -101 -4 -13 -38 -66 -77 -118 -121 -162 -224 -391 -405 -899 -177 -498
-210 -566 -341 -697 -50 -51 -103 -95 -118 -99 -36 -9 -82 12 -113 52 -31 41
-101 69 -212 84 -95 13 -195 -1 -371 -50 -210 -58 -414 -84 -807 -102 -299
-14 -561 -2 -723 32 -289 61 -579 144 -730 209 l-88 39 -76 -67 c-85 -73 -171
-182 -240 -305 -60 -106 -64 -132 -36 -217 13 -42 19 -76 15 -91 -4 -13 -45
-79 -90 -148 -159 -240 -217 -365 -234 -500 -21 -165 -9 -420 24 -537 37 -126
169 -198 297 -162 81 22 213 177 330 386 62 112 124 195 242 323 95 104 183
215 191 242 20 64 103 103 253 118 111 12 177 22 312 51 52 11 132 23 177 26
l82 6 31 -34 c17 -19 55 -75 85 -125 93 -158 152 -200 302 -219 75 -10 88 -22
88 -89 1 -102 52 -126 268 -126 305 0 1117 87 1352 145 124 31 260 97 345 168
214 179 655 786 1220 1677 368 582 535 779 762 899 117 62 146 66 478 66 327
-1 361 -5 635 -75 213 -55 459 -131 685 -212 107 -39 331 -117 496 -174 166
-57 342 -121 392 -142 235 -101 403 -228 883 -663 107 -96 273 -242 369 -323
234 -198 415 -370 620 -590 219 -235 333 -373 432 -521 87 -129 188 -264 252
-333 93 -102 157 -97 305 22 123 99 217 247 262 413 31 113 79 202 233 431
178 265 291 499 367 762 23 79 24 104 4 120 -21 18 -96 15 -131 -3 -29 -16
-147 -133 -243 -242 -190 -216 -359 -295 -628 -295 -144 0 -235 18 -331 66
-145 71 -423 305 -438 369 -5 19 -1 47 10 80 16 45 147 311 243 492 l38 72
-40 41 c-47 48 -97 91 -705 597 -661 550 -879 721 -1026 809 -175 103 -569
233 -1214 398 -548 140 -790 188 -1066 210 -213 18 -278 32 -282 61 -2 13 29
56 89 125 171 196 1003 1073 1023 1078 14 3 203 -80 586 -258 883 -411 1079
-491 1239 -506 96 -9 129 4 202 84 74 80 200 253 271 370 122 202 197 455 268
904 33 207 71 387 115 536 17 60 25 102 20 120 -11 44 -103 128 -155 142 -78
21 -74 -5 -65 371 l7 337 -54 11 c-119 24 -646 111 -670 111 -31 0 -33 -11
-42 -190 -5 -86 -45 -461 -115 -1075 -15 -124 -14 -220 2 -233 15 -12 59 -19
192 -31 109 -10 222 -42 254 -73 19 -17 20 -21 7 -47 -22 -41 -155 -162 -215
-195 -37 -20 -73 -30 -117 -34 -57 -4 -71 -1 -127 26 -34 18 -112 74 -174 126
-61 51 -176 140 -255 197 -180 130 -251 201 -415 419 -145 193 -250 313 -362
415 -146 133 -155 154 -96 222 42 50 85 66 135 53 19 -5 69 -19 110 -30 174
-49 300 26 300 176 0 70 -27 135 -97 232 l-46 64 33 72 c66 143 83 192 86 235
2 36 10 51 45 87 47 48 47 45 -3 124 -18 27 -23 53 -26 130 -5 110 -6 111
-104 176 -108 72 -208 221 -208 312 0 59 36 97 76 82 15 -6 45 -26 66 -45 41
-37 58 -44 58 -21 0 24 -98 104 -154 125 -66 24 -272 66 -429 86 -129 16 -240
18 -302 4z"/>
</g>
</svg>
